PathFileType	4	(X/Y/Z)	/Users/visionmauri/4_2_2_f_1_Sports2D/4_2_2_f_1_Sports2D_px_person00.trc
DataRate	CameraRate	NumFrames	NumMarkers	Units	OrigDataRate	OrigDataStartFrame	OrigNumFrames
30.0	30.0	12	22	m	30.0	81	325
Frame#	Time	Hip			RHip			RKnee			RAnkle			RBigToe			RSmallToe			RHeel			LHip			LKnee			LAnkle			LBigToe			LSmallToe			LHeel			Neck			Head			Nose			RShoulder			RElbow			RWrist			LShoulder			LElbow			LWrist			
		X1	Y1	Z1	X2	Y2	Z2	X3	Y3	Z3	X4	Y4	Z4	X5	Y5	Z5	X6	Y6	Z6	X7	Y7	Z7	X8	Y8	Z8	X9	Y9	Z9	X10	Y10	Z10	X11	Y11	Z11	X12	Y12	Z12	X13	Y13	Z13	X14	Y14	Z14	X15	Y15	Z15	X16	Y16	Z16	X17	Y17	Z17	X18	Y18	Z18	X19	Y19	Z19	X20	Y20	Z20	X21	Y21	Z21	X22	Y22	Z22
81	2.7083333333333335	511.0168671348411	836.6478958072872	0.0	560.6760220202473	831.6027572927111	0.0	603.1061639015803	998.7096800335975	0.0	608.5342728275242	976.7794823931748	0.0	599.0545656535621	1180.0269570663304	0.0	638.628827474814	1024.31718919846	0.0	597.7155246542416	974.952498554216	0.0	464.23716239378126	846.2203457086755	0.0	489.5319064950536	1055.612922879526	0.0	501.68817966296086	1251.5734471011679	0.0	524.8678501354831	1289.489502754973	0.0	495.40838179925305	1292.0117428917788	0.0	501.74584346503286	1285.222229634872	0.0	509.49352554097493	575.9547368002014	0.0	567.3817478690391	475.1314023147155	0.0	568.4207439162983	538.395494800542	0.0	577.1594425976941	597.0822121722551	0.0	645.805686366694	721.1493108047164	0.0	723.6642254543922	823.4067822225211	0.0	419.94107943914145	605.0430396258607	0.0	336.10581670162645	698.4142908814113	0.0	386.08100804118044	802.4250074546834	0.0
82	2.741769547325103	509.5697144635622	836.5255938011046	0.0	558.932634366007	832.3295746534523	0.0	604.1401996236413	1001.1191327494034	0.0	611.2609122749367	992.2892117190104	0.0	605.0585625330572	1254.3104422206623	0.0	642.8751960664588	1106.3369963119467	0.0	600.0654241104698	998.5563782259619	0.0	464.0207500730127	848.0763380122033	0.0	489.3096655920278	1054.878725254176	0.0	501.9033730426166	1251.7704837482395	0.0	525.9050309911723	1288.0112417993228	0.0	494.98752208206565	1291.5945480518292	0.0	501.8071067526885	1285.3083464644728	0.0	510.5082132713484	577.099050430503	0.0	568.3146652727896	475.77354013652484	0.0	570.6155791395759	540.2356872083544	0.0	575.6503602622115	596.5490912862592	0.0	644.0509343332476	721.824973279742	0.0	723.108772297669	824.8139805178986	0.0	421.1209550141291	606.6685413702231	0.0	339.73035853929446	702.2960139281591	0.0	396.7152020488381	800.6539629445207	0.0
83	2.7752057613168724	508.46599281246296	836.7469616483908	0.0	556.638358292656	834.1393094888291	0.0	605.4515265251971	1001.5058577363174	0.0	613.1956835106149	1062.1604312639274	0.0	618.3025734539634	1286.3364800221173	0.0	649.2653473265503	1223.7832942618575	0.0	600.6260002455639	1082.4632029790669	0.0	463.8548919372891	849.8982960823072	0.0	489.42425802151945	1052.884475654091	0.0	501.6740403714889	1250.556260174117	0.0	527.580731644821	1286.0760025561092	0.0	494.66247688762616	1290.3619286150692	0.0	501.62826731608675	1285.8263994378565	0.0	510.933887600921	578.324276221044	0.0	570.4925351268538	476.755244404795	0.0	572.5906628714035	544.0738772684799	0.0	573.3644696690467	596.2942656313079	0.0	642.3445082495356	721.5142299450629	0.0	722.9536681196416	826.2925892722626	0.0	422.34510855609693	607.9906706585558	0.0	345.4698752340573	708.184698678793	0.0	409.88490107297423	799.5955943284059	0.0
84	2.808641975308642	507.17190638689243	838.5157562907341	0.0	553.9148445068943	836.7885546004995	0.0	605.9021855572887	1002.9624808916545	0.0	613.3320258824931	1163.5528256021626	0.0	635.4814370880863	1297.0294013756975	0.0	656.0909868604534	1303.444441527227	0.0	598.9387783357622	1198.4185710092147	0.0	463.056499246388	851.7252089446007	0.0	489.08503337274254	1052.5640340080981	0.0	501.1186621226669	1248.5898677698335	0.0	530.0423348613302	1284.860773651238	0.0	494.9610302840582	1288.9933555306545	0.0	501.06711053764855	1286.7872378824022	0.0	510.97894021179326	578.9294746680911	0.0	573.1695105989936	478.9684583533262	0.0	573.564874720033	547.9686027855836	0.0	569.6993628677774	595.967729357431	0.0	639.6503389047457	720.6390190632034	0.0	722.6384019984752	826.8166326034809	0.0	423.95411544223043	609.4134255108701	0.0	353.0575585884885	715.7220478218929	0.0	424.6603267525636	796.9580830064818	0.0
85	2.8420781893004117	505.10717597540554	841.0722292150151	0.0	550.7811917255194	839.1220570141279	0.0	605.4660733008739	1006.5312535195304	0.0	611.9220017086134	1236.1769668785644	0.0	650.5845200716522	1299.0611394271755	0.0	660.7466526193007	1320.4285264280988	0.0	596.4860146871238	1278.1273680819868	0.0	461.4085780381449	853.0549167731012	0.0	488.0491845213227	1053.802307102437	0.0	500.3308222529253	1247.2705025532646	0.0	531.9487342470371	1285.016412167886	0.0	495.6225478952264	1288.7323254077828	0.0	500.2683844331596	1287.6262976005535	0.0	511.48565597865144	578.4467541609034	0.0	575.9589350002764	481.6948639523995	0.0	574.6900992140145	549.8144571097632	0.0	565.8897155609046	595.5377880830258	0.0	636.3364093508359	720.301973876995	0.0	722.0706425619369	827.2471278917325	0.0	426.3869655089536	610.9100037244987	0.0	362.00726070200005	724.0486507956631	0.0	437.64057490778873	792.59913811418	0.0
86	2.875514403292181	502.0884348147072	841.3532717967385	0.0	547.462501213565	839.6022334806032	0.0	605.0136925399141	1006.2460767584313	0.0	609.0363923773045	1259.4102154349778	0.0	656.3663455280797	1296.122604023177	0.0	660.3534020675223	1311.8924776630574	0.0	593.6849035314727	1301.366388726714	0.0	459.2719653493475	852.7711674968233	0.0	487.1624192603869	1053.6732516136303	0.0	499.6015381312246	1247.276586219784	0.0	532.4279982800413	1285.768720895579	0.0	496.32527661162436	1289.4827247998574	0.0	499.7764603957996	1287.587328167472	0.0	511.76961273868426	577.7596724774847	0.0	579.6814807244815	484.0347277086776	0.0	577.6024265528076	551.3910712781613	0.0	563.5050216632732	594.7586409388887	0.0	633.4020934330762	720.5915492150591	0.0	721.562863572196	828.1673297961618	0.0	429.64661164061704	611.52710350619	0.0	372.225351240991	731.9519584615789	0.0	444.951331006758	788.2750680458488	0.0
87	2.9089506172839505	498.30487509258154	838.1900532048885	0.0	544.3448477668217	838.0473794275113	0.0	604.5371820043317	997.7982437425005	0.0	604.7097998889344	1255.389422616896	0.0	648.4421134431985	1291.025996216423	0.0	652.5780581527981	1309.584982202532	0.0	589.7739075584205	1295.396373353505	0.0	457.5660210352541	851.4334906901017	0.0	487.2417762811331	1051.4576380782441	0.0	499.18626592210364	1248.0460920924797	0.0	532.446906042645	1285.622132374495	0.0	497.0982133558035	1290.1864115532485	0.0	499.88506978325177	1286.1198977163892	0.0	511.25443924770457	577.4096215846263	0.0	584.6718474940949	486.0125172675216	0.0	582.3351727790127	555.0057264697284	0.0	562.8074450074779	593.4365953782332	0.0	631.3404898801689	720.7811297849272	0.0	721.407554928444	828.9024638049829	0.0	433.3847688350718	610.4534007823614	0.0	383.75834935686635	738.0139852718332	0.0	444.92917637066904	786.2462042947618	0.0
88	2.94238683127572	494.6366495347413	834.797674207614	0.0	541.676545708378	836.0243943212437	0.0	602.9702971237253	986.9890022174368	0.0	600.1828118156151	1226.5924448988271	0.0	632.0883082775988	1283.0074850937006	0.0	639.7576652654777	1307.374179487335	0.0	585.5107934850286	1262.24189537908	0.0	456.9890512536342	850.5633013239708	0.0	487.9120484974363	1049.4477353190612	0.0	499.07596631637557	1248.6128147219283	0.0	532.9453615798033	1284.1568122448734	0.0	497.91148001874876	1290.2971443586919	0.0	500.0998014316973	1283.913624825595	0.0	511.6305036296841	576.9058319163036	0.0	589.8438532888493	487.4637808773947	0.0	587.1389100103928	558.3338686868323	0.0	563.0241218067467	592.0853121909333	0.0	629.9263899801106	720.632200345905	0.0	721.525274703099	828.7541551691719	0.0	437.3395415269264	607.589685159784	0.0	396.52651493513747	740.5230485795014	0.0	440.7436807084722	787.4466026193219	0.0
89	2.97582304526749	492.20381084456574	834.7924581201278	0.0	539.7700540962601	835.4385972627575	0.0	599.7870489557304	981.7242145621733	0.0	597.6711228970613	1153.1966995410169	0.0	619.2899148013449	1274.5537197215551	0.0	629.4335605059542	1276.123541566807	0.0	583.8500028656723	1178.6523493267625	0.0	457.28456520160097	850.6070596643262	0.0	488.1513795587863	1049.3374363474813	0.0	499.1307998524578	1249.2978237635957	0.0	532.9897180960687	1282.6505202684764	0.0	497.8529530547496	1289.9965901958985	0.0	500.04864318730597	1283.2332727779371	0.0	513.9357176281711	576.3254232332755	0.0	594.1375617920436	488.0624023775706	0.0	590.2758137245199	558.6508204146966	0.0	563.2449752498516	591.4355171377642	0.0	628.6514873013266	720.767661079542	0.0	721.6824520473037	827.9604679641028	0.0	441.67255022035164	603.6839170806926	0.0	410.8173790726736	738.4307904450004	0.0	440.33248092909463	790.7631687006553	0.0
90	3.0092592592592595	491.11992727320865	837.6099671504111	0.0	538.7952060456078	836.6046807767814	0.0	595.8137644326416	981.1612988587216	0.0	598.4045056486498	1058.2363140614466	0.0	614.3207909782594	1273.7845673501831	0.0	624.3997445530051	1214.122519688416	0.0	586.6279722402471	1066.6740466116414	0.0	457.5838953299643	850.8573409525208	0.0	487.7815078848047	1050.0720344720896	0.0	499.2114943674531	1250.3252926922567	0.0	530.563385406193	1282.8246350217044	0.0	495.7381165940856	1289.653855289622	0.0	500.05634838593704	1284.6416030210103	0.0	516.1146832588313	576.7113335731332	0.0	597.4062380977983	488.2479044436041	0.0	591.7023615306032	558.3507100214135	0.0	562.6659774533678	591.7191753988461	0.0	627.4570891425927	721.4703050253146	0.0	722.0192016086255	827.5825765533048	0.0	446.5041376560319	600.3816073332407	0.0	427.3589419486843	733.6088343358135	0.0	451.71694219136253	794.6595201220493	0.0
91	3.0426954732510287	490.5404594534423	840.0207078401905	0.0	538.0046228351771	838.0260036707468	0.0	592.3702870842993	980.6375009993995	0.0	600.341056751355	1015.6406908344911	0.0	611.0624329424434	1278.4440402171701	0.0	619.8550102043639	1176.5197049313408	0.0	590.0849175305866	991.6147056851546	0.0	457.3121074795506	850.4529401505538	0.0	487.733510102959	1050.3112681595846	0.0	499.3695388481505	1250.4090898119643	0.0	525.6475463706796	1284.7947735407522	0.0	492.47811788936673	1289.3632787887552	0.0	500.2549994857965	1285.6720178253054	0.0	516.7291652810152	578.6546664873331	0.0	600.1174143119727	488.56815612550787	0.0	592.5230261333598	561.0293558241923	0.0	561.0245486873183	592.5182966230293	0.0	626.7651258298231	722.1376761093904	0.0	722.7368127212015	828.0914971332943	0.0	451.4742226490593	598.8779755717303	0.0	446.03743653377217	730.5561612418703	0.0	479.3633998526473	797.7833181493569	0.0
92	3.0761316872427984	489.5841987142909	840.1719673082439	0.0	536.0701287433529	838.429163612817	0.0	589.5839299014744	979.60883614593	0.0	598.3553882626036	1050.133357469852	0.0	605.9089405416173	1262.3739007362137	0.0	613.8625163055809	1190.836605501747	0.0	586.9995098207023	975.7000008715746	0.0	456.5748822244915	849.4784058641278	0.0	488.4170336851264	1050.203307852222	0.0	499.7087249909292	1249.3824277833266	0.0	521.600376087303	1287.2873221514956	0.0	490.8547045290766	1289.1095688444184	0.0	500.3961375269296	1284.5855789616749	0.0	517.6174543362579	580.8464518975346	0.0	603.0129312217481	489.0700369533065	0.0	593.6040370218211	565.9510128292352	0.0	559.1542249915818	593.124984314736	0.0	626.9227199501321	722.400977808271	0.0	723.6587967170489	828.6868946063581	0.0	456.33101951072325	598.7809350833121	0.0	465.6255609186011	731.6983725587231	0.0	520.7017451624571	799.2027974929749	0.0
